<?xml version="1.0" standalone="no"?>
<!DOCTYPE svg PUBLIC "-//W3C//DTD SVG 20010904//EN"
 "http://www.w3.org/TR/2001/REC-SVG-20010904/DTD/svg10.dtd">
<svg version="1.0" xmlns="http://www.w3.org/2000/svg"
 width="961.000000pt" height="1029.000000pt" viewBox="0 0 961.000000 1029.000000"
 preserveAspectRatio="xMidYMid meet">

<g transform="translate(0.000000,1029.000000) scale(0.100000,-0.100000)"
fill="#8884d8" stroke="none">
<path d="M2270 10199 c-290 -32 -670 -120 -927 -214 -142 -53 -332 -146 -418
-206 -93 -64 -150 -125 -182 -195 -30 -66 -26 -99 18 -164 66 -98 83 -141 83
-210 0 -118 -43 -179 -349 -490 -229 -232 -318 -343 -373 -460 -31 -66 -36
-87 -40 -170 -10 -228 71 -382 442 -846 82 -101 162 -195 180 -209 43 -33 381
-196 586 -283 803 -341 1808 -686 2325 -797 202 -44 317 -56 420 -44 219 26
463 95 654 185 51 24 101 44 111 44 10 0 60 -20 111 -44 191 -90 435 -159 654
-185 103 -12 218 0 420 44 517 111 1522 456 2325 797 205 87 543 250 586 283
18 14 98 108 180 209 371 464 452 618 442 846 -4 83 -9 104 -40 170 -55 117
-144 228 -373 460 -306 311 -349 372 -349 490 0 69 17 112 83 210 44 65 48 98
18 164 -14 30 -44 75 -66 99 -118 128 -416 275 -754 373 -336 97 -751 165
-924 150 -123 -10 -474 -156 -964 -402 -288 -143 -423 -201 -559 -238 -201
-54 -287 -61 -790 -61 -503 0 -589 7 -790 61 -136 37 -271 95 -559 238 -307
154 -512 247 -730 333 -160 63 -170 65 -266 68 -55 2 -138 -1 -185 -6z m-495
-1099 c248 -154 391 -274 499 -417 191 -254 292 -627 299 -1098 l2 -150 -27
-3 c-14 -2 -113 26 -220 62 -193 65 -324 96 -402 96 -108 0 -224 105 -318 287
-68 132 -98 212 -134 368 -26 110 -28 137 -29 320 0 178 3 209 23 283 12 46
38 114 56 151 37 73 110 171 127 171 6 0 62 -31 124 -70z m6226 18 c56 -71
104 -170 131 -270 20 -74 23 -105 23 -283 -1 -183 -3 -210 -29 -320 -36 -156
-66 -236 -134 -368 -94 -182 -210 -287 -318 -287 -78 0 -209 -31 -402 -96
-107 -36 -206 -64 -220 -62 l-27 3 2 150 c3 187 17 335 49 493 81 405 242 669
542 885 103 74 314 206 329 207 7 0 31 -23 54 -52z m-4171 -2282 c121 -25 203
-52 258 -86 26 -16 32 -26 32 -53 0 -62 -79 -113 -238 -153 -111 -28 -184 -31
-207 -8 -43 44 -85 175 -85 268 l0 56 63 0 c34 0 114 -11 177 -24z m2180 -32
c0 -93 -42 -224 -85 -268 -23 -23 -96 -20 -207 8 -159 40 -238 91 -238 153 0
27 6 37 33 53 83 52 306 108 430 109 l67 1 0 -56z"/>
<path d="M1841 8752 c-20 -21 -53 -69 -73 -108 -163 -312 -89 -638 187 -823
78 -52 179 -96 197 -85 15 10 4 61 -52 239 -57 182 -66 223 -80 394 -21 246
-74 421 -128 421 -8 0 -31 -17 -51 -38z"/>
<path d="M7676 8771 c-40 -44 -80 -211 -96 -402 -14 -171 -23 -212 -80 -394
-56 -178 -67 -229 -52 -239 18 -11 119 33 197 85 276 185 350 511 187 823 -39
75 -100 146 -124 146 -8 0 -22 -8 -32 -19z"/>
<path d="M892 6500 c-12 -5 -25 -17 -29 -25 -7 -19 -2 -24 196 -271 868 -1080
1578 -2316 1929 -3359 117 -347 189 -619 326 -1230 114 -509 119 -527 162
-574 88 -99 330 -166 742 -207 135 -13 175 -15 185 -5 25 25 6 258 -21 262 -4
0 -129 4 -278 7 -293 8 -291 7 -348 69 -61 66 -114 266 -216 823 -114 621
-170 862 -247 1070 -19 52 -111 244 -203 425 -178 348 -667 1342 -840 1705
-246 517 -394 849 -440 990 l-28 85 -83 42 c-228 115 -716 232 -807 193z"/>
<path d="M8555 6503 c-164 -22 -508 -127 -644 -196 l-83 -42 -28 -85 c-46
-141 -194 -473 -440 -990 -173 -363 -662 -1357 -840 -1705 -92 -181 -184 -373
-203 -425 -77 -208 -133 -449 -247 -1070 -102 -557 -155 -757 -216 -823 -57
-62 -55 -61 -348 -69 -149 -3 -274 -7 -278 -7 -27 -4 -46 -237 -21 -262 10
-10 50 -8 185 5 412 41 654 108 742 207 43 47 48 65 162 574 137 611 209 883
326 1230 350 1042 1061 2280 1929 3359 198 246 203 252 196 271 -12 31 -89 42
-192 28z"/>
<path d="M2192 6038 c-34 -42 -23 -143 35 -323 165 -512 590 -1306 866 -1619
56 -63 143 -133 153 -123 3 3 -11 53 -30 111 -207 626 -233 1228 -67 1569 21
45 37 87 34 94 -25 66 -352 185 -718 262 -190 40 -257 47 -273 29z"/>
<path d="M7225 6043 c-146 -21 -523 -117 -660 -168 -93 -35 -183 -82 -211
-111 l-24 -24 30 -61 c134 -265 157 -664 65 -1136 -27 -139 -88 -370 -130
-492 -14 -41 -23 -77 -20 -79 8 -9 82 48 133 102 288 304 790 1257 912 1732
34 129 37 189 14 222 -15 22 -36 25 -109 15z"/>
<path d="M4463 4324 c-81 -40 -82 -154 -4 -534 154 -747 201 -1166 201 -1805
0 -644 -66 -1091 -205 -1391 -47 -102 -125 -217 -234 -344 -92 -107 -119 -145
-108 -156 3 -3 32 2 64 11 232 68 488 269 593 469 14 25 30 46 37 46 6 0 26
-26 43 -57 92 -172 301 -349 512 -432 100 -40 138 -47 138 -27 0 15 -57 90
-138 181 -105 117 -200 279 -256 433 -112 314 -166 811 -153 1427 13 583 49
887 188 1585 79 398 88 490 53 550 -41 71 -138 78 -216 15 -62 -50 -133 -85
-170 -85 -42 0 -104 29 -149 67 -72 63 -133 78 -196 47z"/>
<path d="M3684 2436 c-17 -91 21 -500 67 -713 43 -204 99 -352 151 -401 33
-30 70 -40 218 -57 203 -23 327 -29 334 -16 4 6 4 36 1 66 -7 53 -9 56 -69 99
-96 69 -234 219 -322 352 -81 121 -197 340 -293 556 -29 64 -59 125 -66 135
-12 16 -14 14 -21 -21z"/>
<path d="M5814 2393 c-260 -562 -419 -804 -634 -964 -65 -48 -70 -54 -80 -106
-9 -40 -9 -58 -1 -66 8 -8 59 -8 183 1 206 15 323 34 357 59 63 45 142 270
186 528 40 238 60 604 35 620 -6 4 -26 -28 -46 -72z"/>
</g>
</svg>
